<svg width="22" height="12" viewBox="0 0 22 12" fill="none" xmlns="http://www.w3.org/2000/svg">
<path d="M12.8741 6.99753C12.8741 8.10172 11.9811 8.99506 10.8774 8.99506C9.7737 8.99506 8.88074 8.10172 8.88074 6.99753C8.88074 5.89334 9.7737 5 10.8774 5C11.9811 5 12.8741 5.89334 12.8741 6.99753ZM15.7582 5C14.6544 5 13.7615 5.89334 13.7615 6.99753C13.7615 8.10172 14.6544 8.99506 15.7582 8.99506C16.8619 8.99506 17.7548 8.10172 17.7548 6.99753C17.7548 5.89334 16.8619 5 15.7582 5ZM5.99667 5C4.89295 5 4 5.89334 4 6.99753C4 8.10172 4.89295 8.99506 5.99667 8.99506C7.10038 8.99506 7.99334 8.10172 7.99334 6.99753C7.99334 5.89334 7.10038 5 5.99667 5Z" fill="black"/>
</svg>
