<svg width="71" height="19" viewBox="0 0 71 19" fill="none" xmlns="http://www.w3.org/2000/svg">
<path d="M71 9.5L62.75 16.8612V2.13878L71 9.5Z" fill="#A3A3A3"/>
<path d="M23.125 15L25.4844 6.22656H25.5391L27.8984 15H28.9219L31.8672 4.34375H30.5156L28.4141 13.2031H28.3516L26.1094 4.34375H24.9141L22.6719 13.2031H22.6094L20.5078 4.34375H19.1562L22.1016 15H23.125ZM35.9531 15.1328C36.4479 15.1328 36.8802 15.0651 37.25 14.9297C37.625 14.7943 37.9375 14.6224 38.1875 14.4141C38.4427 14.2005 38.6406 13.974 38.7812 13.7344C38.9219 13.4896 39.0078 13.263 39.0391 13.0547H37.8438C37.7917 13.2318 37.6849 13.4036 37.5234 13.5703C37.362 13.7318 37.1484 13.8672 36.8828 13.9766C36.6172 14.0807 36.3047 14.1328 35.9453 14.1328C35.2057 14.1328 34.6432 13.8958 34.2578 13.4219C33.8724 12.9427 33.6797 12.3464 33.6797 11.6328V11.2031H39.1562V10.2891C39.1562 9.54948 39.013 8.91146 38.7266 8.375C38.4453 7.83854 38.0573 7.42448 37.5625 7.13281C37.0677 6.83594 36.4974 6.6875 35.8516 6.6875C35.2109 6.6875 34.6406 6.83594 34.1406 7.13281C33.6458 7.42448 33.2552 7.83854 32.9688 8.375C32.6875 8.91146 32.5469 9.54948 32.5469 10.2891V11.5547C32.5469 12.2786 32.6797 12.9115 32.9453 13.4531C33.2161 13.9896 33.6042 14.4036 34.1094 14.6953C34.6198 14.987 35.2344 15.1328 35.9531 15.1328ZM33.6797 10.3203C33.6797 10.2995 33.6797 10.2786 33.6797 10.2578C33.6797 10.237 33.6797 10.2135 33.6797 10.1875C33.6797 9.68229 33.7682 9.24219 33.9453 8.86719C34.1276 8.49219 34.3802 8.20312 34.7031 8C35.0312 7.79688 35.4141 7.69531 35.8516 7.69531C36.2839 7.69531 36.6615 7.79688 36.9844 8C37.3125 8.20312 37.5677 8.49219 37.75 8.86719C37.9323 9.24219 38.0234 9.68229 38.0234 10.1875C38.0234 10.2135 38.0234 10.237 38.0234 10.2578C38.0234 10.2786 38.0234 10.2995 38.0234 10.3203H33.6797ZM44.1094 15.1328C44.6042 15.1328 45.0365 15.0651 45.4062 14.9297C45.7812 14.7943 46.0938 14.6224 46.3438 14.4141C46.599 14.2005 46.7969 13.974 46.9375 13.7344C47.0781 13.4896 47.1641 13.263 47.1953 13.0547H46C45.9479 13.2318 45.8411 13.4036 45.6797 13.5703C45.5182 13.7318 45.3047 13.8672 45.0391 13.9766C44.7734 14.0807 44.4609 14.1328 44.1016 14.1328C43.362 14.1328 42.7995 13.8958 42.4141 13.4219C42.0286 12.9427 41.8359 12.3464 41.8359 11.6328V11.2031H47.3125V10.2891C47.3125 9.54948 47.1693 8.91146 46.8828 8.375C46.6016 7.83854 46.2135 7.42448 45.7188 7.13281C45.224 6.83594 44.6536 6.6875 44.0078 6.6875C43.3672 6.6875 42.7969 6.83594 42.2969 7.13281C41.8021 7.42448 41.4115 7.83854 41.125 8.375C40.8438 8.91146 40.7031 9.54948 40.7031 10.2891V11.5547C40.7031 12.2786 40.8359 12.9115 41.1016 13.4531C41.3724 13.9896 41.7604 14.4036 42.2656 14.6953C42.776 14.987 43.3906 15.1328 44.1094 15.1328ZM41.8359 10.3203C41.8359 10.2995 41.8359 10.2786 41.8359 10.2578C41.8359 10.237 41.8359 10.2135 41.8359 10.1875C41.8359 9.68229 41.9245 9.24219 42.1016 8.86719C42.2839 8.49219 42.5365 8.20312 42.8594 8C43.1875 7.79688 43.5703 7.69531 44.0078 7.69531C44.4401 7.69531 44.8177 7.79688 45.1406 8C45.4688 8.20312 45.724 8.49219 45.9062 8.86719C46.0885 9.24219 46.1797 9.68229 46.1797 10.1875C46.1797 10.2135 46.1797 10.237 46.1797 10.2578C46.1797 10.2786 46.1797 10.2995 46.1797 10.3203H41.8359ZM50.4062 11.8984L51.25 11.0703L54.2344 15H55.5938L52.0703 10.3516L55.3828 6.82031H54.0469L50.4531 10.625H50.4062V3.77344H49.2812V15H50.4062V11.8984Z" fill="white"/>
</svg>
