<svg width="50" height="42" viewBox="0 0 50 42" fill="none" xmlns="http://www.w3.org/2000/svg">
<path d="M5.87891 36.8662H6.875L8.84375 30.0928H8.86719L10.8359 36.8662H11.832L14.1348 28.4111H13.0332L11.3281 35.3545H11.3047L9.38867 28.4111H8.32227L6.40625 35.3545H6.38281L4.67773 28.4111H3.57617L5.87891 36.8662ZM16.9414 36.9834C18.623 36.9834 19.7598 35.7646 19.7598 33.8193V33.8076C19.7598 31.8623 18.6172 30.6553 16.9355 30.6553C15.2539 30.6553 14.1172 31.8682 14.1172 33.8076V33.8193C14.1172 35.7588 15.248 36.9834 16.9414 36.9834ZM16.9473 36.0811C15.8691 36.0811 15.1602 35.2549 15.1602 33.8193V33.8076C15.1602 32.3838 15.875 31.5576 16.9355 31.5576C18.0137 31.5576 18.7168 32.3779 18.7168 33.8076V33.8193C18.7168 35.249 18.0195 36.0811 16.9473 36.0811ZM20.791 36.8662H21.8105V33.1045C21.8105 32.1787 22.3262 31.6279 23.1172 31.6279C23.3633 31.6279 23.5801 31.6572 23.6621 31.6865V30.6963C23.5801 30.6846 23.4277 30.6553 23.252 30.6553C22.5664 30.6553 22.0391 31.1006 21.834 31.8037H21.8105V30.7725H20.791V36.8662ZM24.5762 36.8662H25.5957V34.5693L26.1641 34.0244L28.4258 36.8662H29.6094L26.8848 33.4033L29.5273 30.7725H28.291L25.6191 33.4619H25.5957V28.4111H24.5762V36.8662ZM32.5508 36.9834C34.2324 36.9834 35.3691 35.7646 35.3691 33.8193V33.8076C35.3691 31.8623 34.2266 30.6553 32.5449 30.6553C30.8633 30.6553 29.7266 31.8682 29.7266 33.8076V33.8193C29.7266 35.7588 30.8574 36.9834 32.5508 36.9834ZM32.5566 36.0811C31.4785 36.0811 30.7695 35.2549 30.7695 33.8193V33.8076C30.7695 32.3838 31.4844 31.5576 32.5449 31.5576C33.623 31.5576 34.3262 32.3779 34.3262 33.8076V33.8193C34.3262 35.249 33.6289 36.0811 32.5566 36.0811ZM38.4805 36.9834C39.4062 36.9834 40.0273 36.5674 40.3555 35.999H40.3789V36.8662H41.3984V30.7725H40.3789V34.3584C40.3789 35.3955 39.752 36.0811 38.791 36.0811C37.8535 36.0811 37.3906 35.5361 37.3906 34.5459V30.7725H36.3711V34.7275C36.3711 36.1162 37.1445 36.9834 38.4805 36.9834ZM44.709 36.9834C44.9082 36.9834 45.125 36.96 45.2539 36.9424V36.1162C45.166 36.1221 45.0488 36.1396 44.9258 36.1396C44.3809 36.1396 44.0938 35.958 44.0938 35.3076V31.6162H45.2539V30.7725H44.0938V29.126H43.0391V30.7725H42.1484V31.6162H43.0391V35.3135C43.0391 36.4795 43.5898 36.9834 44.709 36.9834Z" fill="white"/>
<path d="M16.7363 18.4809C15.7035 18.4809 14.86 17.308 14.86 15.8718V5.60908C14.86 4.17289 15.7035 3 16.7363 3C17.7691 3 18.6125 4.17289 18.6125 5.60908V15.8659C18.6125 17.3021 17.7691 18.4749 16.7363 18.4749V18.4809ZM14.8901 14.5434V7.66762C14.8901 6.78795 14.3694 6.06387 13.7368 6.06387C13.1042 6.06387 12.5835 6.78795 12.5835 7.66762V14.5374C12.5835 15.4171 13.1042 16.1411 13.7368 16.1411C14.3694 16.1411 14.8901 15.4171 14.8901 14.5374V14.5434ZM30.5544 5.60908V15.8659C30.5544 17.3021 31.3979 18.4749 32.4307 18.4749C33.4635 18.4749 34.307 17.3021 34.307 15.8659V5.60908C34.307 4.17289 33.4635 3 32.4307 3C31.3979 3 30.5544 4.17289 30.5544 5.60908ZM34.2769 6.93755V13.8073C34.2769 14.687 34.7976 15.4111 35.4302 15.4111C36.0628 15.4111 36.5835 14.687 36.5835 13.8073V6.93755C36.5835 6.05789 36.0628 5.33381 35.4302 5.33381C34.7976 5.33381 34.2769 6.05789 34.2769 6.93755ZM30.5544 8.67893H18.6125V13.0773H30.5544V8.67893Z" fill="white"/>
</svg>
