<svg width="50" height="42" viewBox="0 0 50 42" fill="none" xmlns="http://www.w3.org/2000/svg">
<g clip-path="url(#clip0_697_7927)">
<path d="M7.83789 39.0068C9.77148 39.0068 10.9609 38.0576 10.9609 36.5576V36.5518C10.9609 35.2627 10.2344 34.5596 8.5 34.1787L7.5625 33.9736C6.46094 33.7334 5.95117 33.2998 5.95117 32.6084V32.6025C5.95117 31.7881 6.68945 31.249 7.82031 31.2432C8.89258 31.2432 9.61328 31.7529 9.74219 32.6143L9.75391 32.6963H10.8086L10.8027 32.6084C10.709 31.2256 9.50195 30.2705 7.84961 30.2705C6.10938 30.2705 4.87891 31.2432 4.87305 32.6318V32.6377C4.87305 33.874 5.64648 34.6182 7.29883 34.9814L8.23633 35.1865C9.39648 35.4443 9.88281 35.8604 9.88281 36.6045V36.6104C9.88281 37.4834 9.11523 38.0342 7.89648 38.0342C6.67188 38.0342 5.85156 37.5127 5.72852 36.6631L5.7168 36.5811H4.66211L4.66797 36.6631C4.77344 38.1104 6.00977 39.0068 7.83789 39.0068ZM14.5469 38.9834C15.877 38.9834 16.873 38.1865 17.0723 37.1787L17.084 37.1201H16.082L16.0645 37.1729C15.8887 37.6943 15.3438 38.0811 14.5703 38.0811C13.4863 38.0811 12.7949 37.3486 12.7715 36.0947H17.1602V35.7197C17.1602 33.8916 16.1465 32.6553 14.4824 32.6553C12.8184 32.6553 11.7402 33.9502 11.7402 35.8369V35.8428C11.7402 37.7588 12.7949 38.9834 14.5469 38.9834ZM14.4766 33.5576C15.3672 33.5576 16.0234 34.1143 16.123 35.2979H12.7891C12.9004 34.1611 13.5918 33.5576 14.4766 33.5576ZM20.1719 38.9834C20.3711 38.9834 20.5879 38.96 20.7168 38.9424V38.1162C20.6289 38.1221 20.5117 38.1396 20.3887 38.1396C19.8438 38.1396 19.5566 37.958 19.5566 37.3076V33.6162H20.7168V32.7725H19.5566V31.126H18.502V32.7725H17.6113V33.6162H18.502V37.3135C18.502 38.4795 19.0527 38.9834 20.1719 38.9834ZM23.793 38.9834C23.9922 38.9834 24.209 38.96 24.3379 38.9424V38.1162C24.25 38.1221 24.1328 38.1396 24.0098 38.1396C23.4648 38.1396 23.1777 37.958 23.1777 37.3076V33.6162H24.3379V32.7725H23.1777V31.126H22.123V32.7725H21.2324V33.6162H22.123V37.3135C22.123 38.4795 22.6738 38.9834 23.793 38.9834ZM26.0078 31.7412C26.3652 31.7412 26.6465 31.4541 26.6465 31.1025C26.6465 30.7451 26.3652 30.4639 26.0078 30.4639C25.6562 30.4639 25.3691 30.7451 25.3691 31.1025C25.3691 31.4541 25.6562 31.7412 26.0078 31.7412ZM25.498 38.8662H26.5176V32.7725H25.498V38.8662ZM27.9062 38.8662H28.9258V35.2803C28.9258 34.2432 29.5527 33.5576 30.5137 33.5576C31.4512 33.5576 31.9141 34.1025 31.9141 35.0928V38.8662H32.9336V34.9111C32.9336 33.5225 32.1602 32.6553 30.8242 32.6553C29.8984 32.6553 29.2773 33.0713 28.9492 33.6396H28.9258V32.7725H27.9062V38.8662ZM36.8125 41.0342C38.4648 41.0342 39.502 40.1084 39.502 38.6963V32.7725H38.4824V33.8037H38.459C38.084 33.124 37.4043 32.6553 36.543 32.6553C34.9961 32.6553 33.9355 33.8857 33.9355 35.7783V35.7842C33.9355 37.6885 34.9844 38.9248 36.5195 38.9248C37.3926 38.9248 38.0957 38.4912 38.459 37.8174H38.4824V38.5967C38.4824 39.54 37.873 40.1318 36.8008 40.1318C35.9688 40.1318 35.3887 39.8623 35.1953 39.4229L35.1719 39.3701H34.1465L34.1582 39.4229C34.3574 40.3252 35.3066 41.0342 36.8125 41.0342ZM36.7422 38.0225C35.6582 38.0225 34.9785 37.167 34.9785 35.7842V35.7783C34.9785 34.4248 35.6582 33.5576 36.7422 33.5576C37.7734 33.5576 38.4824 34.4365 38.4824 35.7783V35.7842C38.4824 37.1377 37.7793 38.0225 36.7422 38.0225ZM42.9824 38.9834C44.3418 38.9834 45.3496 38.2334 45.3496 37.167V37.1611C45.3496 36.2939 44.9043 35.8076 43.6738 35.5088L42.707 35.2744C42.0332 35.1104 41.7578 34.8232 41.7578 34.4072V34.4014C41.7578 33.8623 42.2148 33.5049 42.9531 33.5049C43.709 33.5049 44.1602 33.8975 44.2422 34.4893L44.248 34.5303H45.2207L45.2148 34.4541C45.1387 33.4346 44.2891 32.6553 42.9531 32.6553C41.6348 32.6553 40.7148 33.3994 40.7148 34.4482V34.4541C40.7148 35.333 41.2715 35.8662 42.4199 36.1416L43.3867 36.376C44.0781 36.5459 44.3066 36.792 44.3066 37.2314V37.2373C44.3066 37.7881 43.8145 38.1338 42.9883 38.1338C42.1562 38.1338 41.7051 37.7764 41.582 37.167L41.5703 37.1084H40.5508L40.5566 37.1611C40.6797 38.251 41.5469 38.9834 42.9824 38.9834Z" fill="white"/>
<path d="M25.6021 22.7607C25.8813 22.7607 26.1499 22.7285 26.4399 22.707L27.0522 23.8887C27.1704 24.125 27.4067 24.2539 27.7075 24.2109C27.9761 24.1572 28.1587 23.9639 28.2017 23.6738L28.3843 22.374C28.9214 22.2344 29.4478 22.0303 29.9526 21.8047L30.9194 22.6748C31.1235 22.8682 31.3813 22.9111 31.6499 22.7607C31.8862 22.6318 31.9829 22.374 31.9292 22.0947L31.6606 20.8057C32.1118 20.4941 32.5522 20.1396 32.9497 19.7422L34.1421 20.2471C34.4106 20.3545 34.6685 20.3008 34.8726 20.0537C35.0552 19.8604 35.0767 19.5811 34.9155 19.3447L34.2173 18.2275C34.5396 17.7764 34.7974 17.293 35.0444 16.7773L36.3657 16.8418C36.645 16.8525 36.8706 16.7021 36.9673 16.4336C37.0532 16.165 36.978 15.9072 36.7524 15.7354L35.7212 14.9189C35.8608 14.4033 35.9683 13.8447 36.022 13.2646L37.2573 12.8779C37.5366 12.7812 37.6978 12.5771 37.6978 12.2871C37.6978 12.0078 37.5366 11.8037 37.2573 11.707L36.022 11.3096C35.9683 10.7295 35.8608 10.1924 35.7212 9.66602L36.7524 8.83887C36.9673 8.67773 37.0532 8.43066 36.9673 8.16211C36.8706 7.89355 36.645 7.74316 36.3657 7.75391L35.0444 7.80762C34.7974 7.29199 34.5396 6.80859 34.2173 6.35742L34.9155 5.24023C35.0659 5.01465 35.0444 4.73535 34.8726 4.54199C34.6685 4.29492 34.4106 4.23047 34.1421 4.34863L32.9497 4.83203C32.5522 4.45605 32.1118 4.09082 31.6606 3.7793L31.9292 2.50098C31.9829 2.21094 31.8862 1.95312 31.6499 1.82422C31.3813 1.68457 31.1235 1.70605 30.9194 1.9209L29.9526 2.76953C29.4478 2.54395 28.9214 2.36133 28.3843 2.21094L28.2017 0.911133C28.1587 0.631836 27.9653 0.427734 27.6968 0.384766C27.4067 0.341797 27.1704 0.459961 27.0522 0.696289L26.4399 1.87793C26.1499 1.85645 25.8813 1.83496 25.6021 1.83496C25.312 1.83496 25.0542 1.85645 24.7642 1.87793L24.1411 0.696289C24.0229 0.459961 23.7866 0.341797 23.4966 0.384766C23.228 0.427734 23.0347 0.631836 23.0024 0.911133L22.8091 2.2002C22.272 2.36133 21.7563 2.54395 21.2407 2.76953L20.2739 1.9209C20.0698 1.70605 19.812 1.68457 19.5435 1.82422C19.3071 1.95312 19.2104 2.21094 19.2642 2.50098L19.5327 3.7793C19.0923 4.09082 18.6411 4.45605 18.2437 4.83203L17.0513 4.34863C16.7827 4.23047 16.5356 4.29492 16.3315 4.54199C16.1489 4.73535 16.1274 5.01465 16.2778 5.22949L16.9761 6.35742C16.6646 6.80859 16.396 7.29199 16.1489 7.80762L14.8384 7.75391C14.5591 7.74316 14.3228 7.89355 14.2261 8.16211C14.1401 8.43066 14.2153 8.67773 14.4409 8.83887L15.4722 9.66602C15.3325 10.1924 15.2251 10.7295 15.1929 11.3096L13.936 11.707C13.6567 11.793 13.5063 11.9971 13.5063 12.2871C13.5063 12.5771 13.6567 12.7812 13.936 12.8779L15.1929 13.2754C15.2251 13.8447 15.3325 14.4033 15.4722 14.9189L14.4409 15.7354C14.2261 15.9072 14.1509 16.165 14.2261 16.4336C14.3228 16.7021 14.5591 16.8525 14.8384 16.8418L16.1489 16.7773C16.396 17.293 16.6646 17.7764 16.9761 18.2275L16.2778 19.3447C16.1274 19.5811 16.1489 19.8604 16.3315 20.0537C16.5356 20.3008 16.7827 20.3545 17.0513 20.2471L18.2437 19.7422C18.6411 20.1396 19.0923 20.4941 19.5327 20.8057L19.2642 22.0947C19.2104 22.374 19.3071 22.6318 19.5435 22.7607C19.812 22.9111 20.0698 22.8682 20.2739 22.6748L21.2407 21.8047C21.7563 22.0303 22.272 22.2344 22.8091 22.374L23.0024 23.6738C23.0347 23.9639 23.228 24.1572 23.4966 24.2109C23.7866 24.2539 24.0229 24.125 24.1411 23.8887L24.7642 22.707C25.0435 22.7285 25.312 22.7607 25.6021 22.7607ZM28.2983 11.6104C27.8042 10.2568 26.8052 9.51562 25.5806 9.51562C25.3872 9.51562 25.1831 9.53711 24.8286 9.6123L21.7456 4.34863C22.9058 3.7793 24.2056 3.46777 25.6021 3.46777C30.2856 3.46777 33.9595 7.02344 34.3032 11.6104H28.2983ZM16.8794 12.2979C16.8794 9.31152 18.2974 6.67969 20.5103 5.08984L23.6255 10.3857C23.0347 10.9873 22.7661 11.6426 22.7661 12.3408C22.7661 13.0176 23.0239 13.6406 23.6147 14.2637L20.4458 19.4629C18.2651 17.8623 16.8794 15.2627 16.8794 12.2979ZM24.2915 12.3301C24.2915 11.5996 24.9038 11.0303 25.6021 11.0303C26.3218 11.0303 26.9233 11.5996 26.9233 12.3301C26.9233 13.0498 26.3218 13.6406 25.6021 13.6406C24.9038 13.6406 24.2915 13.0498 24.2915 12.3301ZM25.6021 21.1279C24.1733 21.1279 22.8413 20.7949 21.6704 20.2148L24.8286 15.0479C25.1616 15.1338 25.3872 15.1553 25.5806 15.1553C26.8159 15.1553 27.8149 14.3926 28.2983 13.0068H34.2925C33.9487 17.5723 30.2856 21.1279 25.6021 21.1279Z" fill="white"/>
</g>
<defs>
<clipPath id="clip0_697_7927">
<rect width="50" height="42" fill="white"/>
</clipPath>
</defs>
</svg>
