<svg width="50" height="42" viewBox="0 0 50 42" fill="none" xmlns="http://www.w3.org/2000/svg">
<path d="M9.51953 39.0068C11.2891 39.0068 12.6426 37.958 12.9648 36.3408L12.9766 36.2822H11.9102L11.8926 36.335C11.5234 37.4482 10.7031 38.0342 9.51953 38.0342C7.83789 38.0342 6.74219 36.6924 6.74219 34.6357V34.6299C6.74219 32.5732 7.83203 31.2432 9.51953 31.2432C10.709 31.2432 11.541 31.8408 11.8691 32.8662L11.9102 32.9951H12.9766L12.9648 32.9365C12.6426 31.3369 11.2773 30.2705 9.51953 30.2705C7.16406 30.2705 5.6582 31.9697 5.6582 34.6299V34.6357C5.6582 37.2959 7.16992 39.0068 9.51953 39.0068ZM15.8477 38.9834C16.6621 38.9834 17.3945 38.5439 17.752 37.876H17.7754V38.8662H18.7949V34.6533C18.7949 33.4346 17.8926 32.6553 16.4512 32.6553C15.0156 32.6553 14.1426 33.4639 14.0547 34.4658L14.0488 34.5303H15.0332L15.0449 34.4775C15.1621 33.9326 15.6543 33.5576 16.4395 33.5576C17.2891 33.5576 17.7754 34.0088 17.7754 34.7529V35.2627L16.0293 35.3623C14.6289 35.4443 13.8203 36.0947 13.8203 37.1318V37.1436C13.8203 38.251 14.6348 38.9834 15.8477 38.9834ZM14.8633 37.1436V37.1318C14.8633 36.5635 15.332 36.2002 16.1465 36.1533L17.7754 36.0537V36.5518C17.7754 37.4365 17.0371 38.0986 16.0762 38.0986C15.3438 38.0986 14.8633 37.7295 14.8633 37.1436ZM20.0898 38.8662H21.1094V35.0459C21.1094 34.1963 21.6953 33.5576 22.5039 33.5576C23.2598 33.5576 23.752 34.0439 23.752 34.7822V38.8662H24.7715V34.9932C24.7715 34.1611 25.3398 33.5576 26.1484 33.5576C26.9512 33.5576 27.4141 34.0557 27.4141 34.8936V38.8662H28.4336V34.6592C28.4336 33.4463 27.6543 32.6553 26.4473 32.6553C25.5918 32.6553 24.877 33.0947 24.5371 33.8271H24.5137C24.25 33.083 23.6348 32.6553 22.8027 32.6553C22.0176 32.6553 21.4082 33.0596 21.1328 33.6631H21.1094V32.7725H20.0898V38.8662ZM32.2422 38.9834C33.5723 38.9834 34.5684 38.1865 34.7676 37.1787L34.7793 37.1201H33.7773L33.7598 37.1729C33.584 37.6943 33.0391 38.0811 32.2656 38.0811C31.1816 38.0811 30.4902 37.3486 30.4668 36.0947H34.8555V35.7197C34.8555 33.8916 33.8418 32.6553 32.1777 32.6553C30.5137 32.6553 29.4355 33.9502 29.4355 35.8369V35.8428C29.4355 37.7588 30.4902 38.9834 32.2422 38.9834ZM32.1719 33.5576C33.0625 33.5576 33.7188 34.1143 33.8184 35.2979H30.4844C30.5957 34.1611 31.2871 33.5576 32.1719 33.5576ZM35.8867 38.8662H36.9062V35.1045C36.9062 34.1787 37.4219 33.6279 38.2129 33.6279C38.459 33.6279 38.6758 33.6572 38.7578 33.6865V32.6963C38.6758 32.6846 38.5234 32.6553 38.3477 32.6553C37.6621 32.6553 37.1348 33.1006 36.9297 33.8037H36.9062V32.7725H35.8867V38.8662ZM41.2539 38.9834C42.0684 38.9834 42.8008 38.5439 43.1582 37.876H43.1816V38.8662H44.2012V34.6533C44.2012 33.4346 43.2988 32.6553 41.8574 32.6553C40.4219 32.6553 39.5488 33.4639 39.4609 34.4658L39.4551 34.5303H40.4395L40.4512 34.4775C40.5684 33.9326 41.0605 33.5576 41.8457 33.5576C42.6953 33.5576 43.1816 34.0088 43.1816 34.7529V35.2627L41.4355 35.3623C40.0352 35.4443 39.2266 36.0947 39.2266 37.1318V37.1436C39.2266 38.251 40.041 38.9834 41.2539 38.9834ZM40.2695 37.1436V37.1318C40.2695 36.5635 40.7383 36.2002 41.5527 36.1533L43.1816 36.0537V36.5518C43.1816 37.4365 42.4434 38.0986 41.4824 38.0986C40.75 38.0986 40.2695 37.7295 40.2695 37.1436Z" fill="white"/>
<path d="M37.5835 7.50673V21.6669C37.5835 22.9698 36.5757 24.0269 35.3335 24.0269H15.8335C14.5913 24.0269 13.5835 22.9698 13.5835 21.6669V7.50673C13.5835 6.2038 14.5913 5.14671 15.8335 5.14671H19.9585L20.5351 3.5291C20.8632 2.60967 21.7022 2 22.6397 2H28.5226C29.4601 2 30.2991 2.60967 30.6272 3.5291L31.2085 5.14671H35.3335C36.5757 5.14671 37.5835 6.2038 37.5835 7.50673ZM31.2085 14.5868C31.2085 11.3319 28.6866 8.68675 25.5835 8.68675C22.4804 8.68675 19.9585 11.3319 19.9585 14.5868C19.9585 17.8417 22.4804 20.4869 25.5835 20.4869C28.6866 20.4869 31.2085 17.8417 31.2085 14.5868ZM29.7085 14.5868C29.7085 16.9714 27.8569 18.9135 25.5835 18.9135C23.3101 18.9135 21.4585 16.9714 21.4585 14.5868C21.4585 12.2022 23.3101 10.2601 25.5835 10.2601C27.8569 10.2601 29.7085 12.2022 29.7085 14.5868Z" fill="white"/>
</svg>
