<svg width="38" height="42" viewBox="0 0 38 42" fill="none" xmlns="http://www.w3.org/2000/svg">
<path d="M4.03906 37.8662H5.09375V34.0166H9.73438V37.8662H10.7891V29.4111H9.73438V33.0674H5.09375V29.4111H4.03906V37.8662ZM14.7969 37.9834C16.4785 37.9834 17.6152 36.7646 17.6152 34.8193V34.8076C17.6152 32.8623 16.4727 31.6553 14.791 31.6553C13.1094 31.6553 11.9727 32.8682 11.9727 34.8076V34.8193C11.9727 36.7588 13.1035 37.9834 14.7969 37.9834ZM14.8027 37.0811C13.7246 37.0811 13.0156 36.2549 13.0156 34.8193V34.8076C13.0156 33.3838 13.7305 32.5576 14.791 32.5576C15.8691 32.5576 16.5723 33.3779 16.5723 34.8076V34.8193C16.5723 36.249 15.875 37.0811 14.8027 37.0811ZM18.6465 37.8662H19.666V34.0459C19.666 33.1963 20.252 32.5576 21.0605 32.5576C21.8164 32.5576 22.3086 33.0439 22.3086 33.7822V37.8662H23.3281V33.9932C23.3281 33.1611 23.8965 32.5576 24.7051 32.5576C25.5078 32.5576 25.9707 33.0557 25.9707 33.8936V37.8662H26.9902V33.6592C26.9902 32.4463 26.2109 31.6553 25.0039 31.6553C24.1484 31.6553 23.4336 32.0947 23.0938 32.8271H23.0703C22.8066 32.083 22.1914 31.6553 21.3594 31.6553C20.5742 31.6553 19.9648 32.0596 19.6895 32.6631H19.666V31.7725H18.6465V37.8662ZM30.7988 37.9834C32.1289 37.9834 33.125 37.1865 33.3242 36.1787L33.3359 36.1201H32.334L32.3164 36.1729C32.1406 36.6943 31.5957 37.0811 30.8223 37.0811C29.7383 37.0811 29.0469 36.3486 29.0234 35.0947H33.4121V34.7197C33.4121 32.8916 32.3984 31.6553 30.7344 31.6553C29.0703 31.6553 27.9922 32.9502 27.9922 34.8369V34.8428C27.9922 36.7588 29.0469 37.9834 30.7988 37.9834ZM30.7285 32.5576C31.6191 32.5576 32.2754 33.1143 32.375 34.2979H29.041C29.1523 33.1611 29.8438 32.5576 30.7285 32.5576Z" fill="#F23869"/>
<path d="M18.2653 7.15687L10.5838 13.8953V21.168C10.5838 21.3563 10.654 21.5369 10.7791 21.67C10.9041 21.8032 11.0736 21.878 11.2504 21.878L15.9192 21.8651C16.0955 21.8642 16.2642 21.7889 16.3884 21.6559C16.5127 21.5228 16.5825 21.3428 16.5825 21.1551V16.9079C16.5825 16.7196 16.6527 16.539 16.7778 16.4059C16.9028 16.2727 17.0723 16.1979 17.2491 16.1979H19.9156C20.0924 16.1979 20.2619 16.2727 20.387 16.4059C20.512 16.539 20.5822 16.7196 20.5822 16.9079V21.152C20.5819 21.2454 20.599 21.338 20.6324 21.4244C20.6657 21.5108 20.7148 21.5893 20.7767 21.6555C20.8386 21.7216 20.9122 21.7741 20.9932 21.81C21.0743 21.8458 21.1611 21.8642 21.2488 21.8642L25.916 21.878C26.0928 21.878 26.2623 21.8032 26.3873 21.67C26.5123 21.5369 26.5826 21.3563 26.5826 21.168V13.8904L18.9028 7.15687C18.8125 7.07935 18.7 7.03708 18.584 7.03708C18.4681 7.03708 18.3556 7.07935 18.2653 7.15687V7.15687ZM30.399 11.7369L26.9159 8.67894V2.5325C26.9159 2.39128 26.8632 2.25583 26.7695 2.15597C26.6757 2.0561 26.5485 2 26.4159 2H24.0828C23.9502 2 23.823 2.0561 23.7292 2.15597C23.6355 2.25583 23.5828 2.39128 23.5828 2.5325V5.7546L19.8527 2.48591C19.4947 2.17217 19.0455 2.00063 18.5819 2.00063C18.1184 2.00063 17.6692 2.17217 17.3112 2.48591L6.76494 11.7369C6.71431 11.7814 6.67243 11.8362 6.64168 11.898C6.61093 11.9598 6.59191 12.0275 6.58572 12.0971C6.57953 12.1668 6.58629 12.237 6.6056 12.3039C6.62491 12.3707 6.6564 12.4329 6.69828 12.4868L7.7607 13.8624C7.80246 13.9165 7.85382 13.9613 7.91185 13.9942C7.96988 14.0271 8.03343 14.0475 8.09888 14.0542C8.16432 14.061 8.23036 14.0539 8.29322 14.0334C8.35609 14.0129 8.41454 13.9794 8.46523 13.9348L18.2653 5.33748C18.3556 5.25996 18.4681 5.21769 18.584 5.21769C18.7 5.21769 18.8125 5.25996 18.9028 5.33748L28.7033 13.9348C28.7539 13.9794 28.8122 14.0129 28.875 14.0335C28.9378 14.0541 29.0037 14.0612 29.0691 14.0547C29.1345 14.0481 29.198 14.0278 29.2561 13.9951C29.3141 13.9623 29.3655 13.9177 29.4074 13.8638L30.4698 12.4881C30.5116 12.4339 30.543 12.3714 30.5621 12.3043C30.5811 12.2371 30.5876 12.1666 30.581 12.0968C30.5744 12.027 30.5549 11.9593 30.5237 11.8975C30.4925 11.8357 30.4501 11.7811 30.399 11.7369V11.7369Z" fill="#F23869"/>
</svg>
