<svg width="25" height="25" viewBox="0 0 25 25" fill="none" xmlns="http://www.w3.org/2000/svg">
<path d="M12.5 22.9729C13.9979 22.9729 15.213 21.7434 15.213 20.2263H9.787C9.787 21.7434 11.0021 22.9729 12.5 22.9729ZM21.6348 16.548C20.8154 15.6571 19.2823 14.3168 19.2823 9.92651C19.2823 6.59194 16.9718 3.92257 13.8563 3.26768V2.37331C13.8563 1.61498 13.249 1 12.5 1C11.751 1 11.1437 1.61498 11.1437 2.37331V3.26768C8.02823 3.92257 5.7177 6.59194 5.7177 9.92651C5.7177 14.3168 4.18456 15.6571 3.36518 16.548C3.11072 16.8248 2.99791 17.1557 3.00003 17.4797C3.00469 18.1835 3.55052 18.853 4.36141 18.853H20.6386C21.4495 18.853 21.9957 18.1835 22 17.4797C22.0021 17.1557 21.8893 16.8244 21.6348 16.548Z" fill="white"/>
<circle cx="18" cy="7.03564" r="5" fill="white"/>
<circle cx="18" cy="7.03564" r="4.5" stroke="#D90707" stroke-opacity="0.7"/>
<path d="M16.5341 5.81364H17.3561C17.3861 5.53764 17.5601 5.27364 17.9681 5.27364C18.3521 5.27364 18.5621 5.47764 18.5621 5.81964C18.5621 6.25164 18.2021 6.38964 17.7101 6.38964H17.5361V7.07964H17.7101C18.3341 7.07964 18.6461 7.25964 18.6461 7.75164C18.6461 8.09964 18.4301 8.36364 18.0101 8.36364C17.5601 8.36364 17.3081 8.09364 17.2901 7.71564H16.4741C16.5101 8.63364 17.1641 9.06564 18.0281 9.06564C18.9461 9.06564 19.4501 8.53764 19.4501 7.82364C19.4501 7.22964 19.1561 6.86964 18.7121 6.73164V6.70764C19.0301 6.59964 19.3721 6.26364 19.3721 5.71764C19.3721 5.06964 18.8921 4.55964 17.9921 4.55964C17.1521 4.55964 16.5761 5.00364 16.5341 5.81364Z" fill="black"/>
</svg>
