<svg width="33" height="20" viewBox="0 0 33 20" fill="none" xmlns="http://www.w3.org/2000/svg">
<path d="M9.15277 18.4809C8.11996 18.4809 7.27649 17.308 7.27649 15.8718V5.60908C7.27649 4.17289 8.11996 3 9.15277 3C10.1856 3 11.029 4.17289 11.029 5.60908V15.8659C11.029 17.3021 10.1856 18.4749 9.15277 18.4749V18.4809ZM7.30662 14.5434V7.66762C7.30662 6.78795 6.78591 6.06387 6.15331 6.06387C5.52071 6.06387 5 6.78795 5 7.66762V14.5374C5 15.4171 5.52071 16.1411 6.15331 16.1411C6.78591 16.1411 7.30662 15.4171 7.30662 14.5374V14.5434ZM22.971 5.60908V15.8659C22.971 17.3021 23.8144 18.4749 24.8472 18.4749C25.88 18.4749 26.7235 17.3021 26.7235 15.8659V5.60908C26.7235 4.17289 25.88 3 24.8472 3C23.8144 3 22.971 4.17289 22.971 5.60908ZM26.6934 6.93755V13.8073C26.6934 14.687 27.2141 15.4111 27.8467 15.4111C28.4793 15.4111 29 14.687 29 13.8073V6.93755C29 6.05789 28.4793 5.33381 27.8467 5.33381C27.2141 5.33381 26.6934 6.05789 26.6934 6.93755ZM22.971 8.67893H11.029V13.0773H22.971V8.67893Z" fill="white"/>
</svg>
