<?xml version="1.0" encoding="utf-8"?>
<!-- Generator: Adobe Illustrator 26.2.1, SVG Export Plug-In . SVG Version: 6.00 Build 0)  -->
<svg version="1.1" id="Layer_1" xmlns="http://www.w3.org/2000/svg" xmlns:xlink="http://www.w3.org/1999/xlink" x="0px" y="0px"
	 viewBox="0 0 100 100" style="enable-background:new 0 0 100 100;" xml:space="preserve">
<style type="text/css">
	.st0{fill:#FFFFFF;stroke:#000000;stroke-miterlimit:10;}
	.st1{stroke:#FFFFFF;stroke-width:0.75;stroke-miterlimit:10;}
</style>
<path class="st0" d="M-88.24,60.55L-88.24,60.55c-2.4,0-4.36-1.96-4.36-4.36V39.04c0-2.4,1.96-4.36,4.36-4.36h0
	c2.4,0,4.36,1.96,4.36,4.36v17.15C-83.87,58.58-85.84,60.55-88.24,60.55z M-92.52,53.96V42.48c0-1.47-1.21-2.68-2.68-2.68h0
	c-1.47,0-2.68,1.21-2.68,2.68v11.48c0,1.47,1.21,2.68,2.68,2.68h0C-93.73,56.64-92.52,55.44-92.52,53.96z M-56.13,39.04v17.15
	c0,2.4,1.96,4.36,4.36,4.36h0c2.4,0,4.36-1.96,4.36-4.36V39.04c0-2.4-1.96-4.36-4.36-4.36h0C-54.16,34.67-56.13,36.64-56.13,39.04z
	 M-47.48,41.26v11.48c0,1.47,1.21,2.68,2.68,2.68h0c1.47,0,2.68-1.21,2.68-2.68V41.26c0-1.47-1.21-2.68-2.68-2.68h0
	C-46.27,38.58-47.48,39.78-47.48,41.26z M-56.13,44.17h-27.75v7.35h27.75V44.17z"/>
<path class="st1" d="M31.3,61.69L31.3,61.69c-2.28,0-4.15-1.87-4.15-4.15V41.22c0-2.28,1.87-4.15,4.15-4.15h0
	c2.28,0,4.15,1.87,4.15,4.15v16.32C35.45,59.82,33.58,61.69,31.3,61.69z M27.22,55.43V44.5c0-1.4-1.15-2.55-2.55-2.55h0
	c-1.4,0-2.55,1.15-2.55,2.55v10.93c0,1.4,1.15,2.55,2.55,2.55h0C26.07,57.98,27.22,56.83,27.22,55.43z M61.87,41.22v16.32
	c0,2.28,1.87,4.15,4.15,4.15h0c2.28,0,4.15-1.87,4.15-4.15V41.22c0-2.28-1.87-4.15-4.15-4.15h0C63.74,37.06,61.87,38.93,61.87,41.22
	z M70.1,43.33v10.93c0,1.4,1.15,2.55,2.55,2.55h0c1.4,0,2.55-1.15,2.55-2.55V43.33c0-1.4-1.15-2.55-2.55-2.55h0
	C71.25,40.78,70.1,41.93,70.1,43.33z M61.87,46.1H35.45v7h26.41V46.1z"/>
</svg>
