<?xml version="1.0" encoding="utf-8"?>
<!-- Generator: Adobe Illustrator 26.2.1, SVG Export Plug-In . SVG Version: 6.00 Build 0)  -->
<svg version="1.1" id="Layer_1" xmlns="http://www.w3.org/2000/svg" xmlns:xlink="http://www.w3.org/1999/xlink" x="0px" y="0px"
	 viewBox="0 0 100 100" style="enable-background:new 0 0 100 100;" xml:space="preserve">
<style type="text/css">
	.st0{fill:#FFFFFF;stroke:#000000;stroke-miterlimit:10;}
	.st1{stroke:#FFFFFF;stroke-width:0.75;stroke-miterlimit:10;}
</style>
<path class="st0" d="M30.53,62.76L30.53,62.76c-2.4,0-4.36-1.96-4.36-4.36V35.7c0-2.4,1.96-4.36,4.36-4.36h0
	c2.4,0,4.36,1.96,4.36,4.36v22.7C34.89,60.79,32.93,62.76,30.53,62.76z M25.12,53.35V41.87c0-1.47-1.21-2.68-2.68-2.68h0
	c-1.47,0-2.68,1.21-2.68,2.68v11.48c0,1.47,1.21,2.68,2.68,2.68h0C23.92,56.03,25.12,54.82,25.12,53.35z M65.13,35.7v22.7
	c0,2.4,1.96,4.36,4.36,4.36h0.2c2.4,0,4.36-1.96,4.36-4.36V35.7c0-2.4-1.96-4.36-4.36-4.36h-0.2C67.1,31.33,65.13,33.3,65.13,35.7z
	 M74.85,41.87v11.48c0,1.47,1.21,2.68,2.68,2.68h1.44c1.47,0,2.68-1.21,2.68-2.68V41.87c0-1.47-1.21-2.68-2.68-2.68h-1.44
	C76.06,39.19,74.85,40.4,74.85,41.87z M65.13,41.79H34.89v10.5h30.24V41.79z"/>
<path class="st1" d="M151.3,61.69L151.3,61.69c-2.28,0-4.15-1.87-4.15-4.15V41.22c0-2.28,1.87-4.15,4.15-4.15h0
	c2.28,0,4.15,1.87,4.15,4.15v16.32C155.45,59.82,153.58,61.69,151.3,61.69z M147.22,55.43V44.5c0-1.4-1.15-2.55-2.55-2.55h0
	c-1.4,0-2.55,1.15-2.55,2.55v10.93c0,1.4,1.15,2.55,2.55,2.55h0C146.07,57.98,147.22,56.83,147.22,55.43z M181.87,41.22v16.32
	c0,2.28,1.87,4.15,4.15,4.15h0c2.28,0,4.15-1.87,4.15-4.15V41.22c0-2.28-1.87-4.15-4.15-4.15h0
	C183.74,37.06,181.87,38.93,181.87,41.22z M190.1,43.33v10.93c0,1.4,1.15,2.55,2.55,2.55l0,0c1.4,0,2.55-1.15,2.55-2.55V43.33
	c0-1.4-1.15-2.55-2.55-2.55l0,0C191.25,40.78,190.1,41.93,190.1,43.33z M181.87,46.1h-26.41v7h26.41V46.1z"/>
</svg>
