<svg width="63" height="66" viewBox="0 0 63 66" fill="none" xmlns="http://www.w3.org/2000/svg">
<g filter="url(#filter0_d_675_7909)">
<path d="M33.3545 0L25.2102 13.7224L20.1824 8.64755L18.2711 10.8416C8.80324 21.6853 4 31.5377 4 40.1263C4 53.7551 16.1943 64.8459 31.183 64.8459C46.1717 64.8459 58.366 53.7551 58.366 40.1263C58.366 27.047 44.2392 10.919 35.8179 2.46766L33.3545 0ZM34.4216 8.87822C41.4239 16.2556 52.9294 29.9309 52.9294 40.1263C52.9294 46.6941 49.1789 52.4979 43.4791 55.9677C44.2907 54.008 44.7745 51.8475 44.7745 49.5464C44.7745 43.0067 40.1951 35.2494 36.3541 29.8963L34.0606 26.6937L28.04 35.8187L24.2174 31.9562L22.4229 34.9496C19.218 40.2945 17.5915 45.204 17.5915 49.5464C17.5915 51.8475 18.0753 54.008 18.8869 55.9677C13.1871 52.4979 9.4366 46.6941 9.4366 40.1263C9.4366 33.5647 13.2358 25.5053 20.4638 16.6996L26.2826 22.5845L34.4216 8.87822ZM34.1827 36.4141C37.5262 41.6794 39.3379 46.2614 39.3379 49.5464C39.3379 54.9545 35.6791 59.3527 31.183 59.3527C26.6869 59.3527 23.0281 54.9545 23.0281 49.5464C23.0281 47.014 23.817 44.1151 25.3801 40.8988L28.8894 44.4394L34.1827 36.4141Z" fill="url(#paint0_linear_675_7909)" shape-rendering="crispEdges"/>
</g>
<defs>
<filter id="filter0_d_675_7909" x="0" y="0" width="62.3662" height="72.8457" filterUnits="userSpaceOnUse" color-interpolation-filters="sRGB">
<feFlood flood-opacity="0" result="BackgroundImageFix"/>
<feColorMatrix in="SourceAlpha" type="matrix" values="0 0 0 0 0 0 0 0 0 0 0 0 0 0 0 0 0 0 127 0" result="hardAlpha"/>
<feOffset dy="4"/>
<feGaussianBlur stdDeviation="2"/>
<feComposite in2="hardAlpha" operator="out"/>
<feColorMatrix type="matrix" values="0 0 0 0 0 0 0 0 0 0 0 0 0 0 0 0 0 0 0.05 0"/>
<feBlend mode="normal" in2="BackgroundImageFix" result="effect1_dropShadow_675_7909"/>
<feBlend mode="normal" in="SourceGraphic" in2="effect1_dropShadow_675_7909" result="shape"/>
</filter>
<linearGradient id="paint0_linear_675_7909" x1="31.183" y1="0" x2="31.183" y2="64.8459" gradientUnits="userSpaceOnUse">
<stop stop-color="#3621BF"/>
<stop offset="0.9999" stop-color="#F23869"/>
<stop offset="1" stop-color="#3621BF" stop-opacity="0"/>
</linearGradient>
</defs>
</svg>
