<svg width="24" height="20" viewBox="0 0 24 20" fill="none" xmlns="http://www.w3.org/2000/svg">
<path d="M11.6818 5.15687L4.00032 11.8953V19.168C4.00032 19.3563 4.07055 19.5369 4.19556 19.67C4.32058 19.8032 4.49013 19.878 4.66693 19.878L9.33574 19.8651C9.51196 19.8642 9.68066 19.7889 9.80495 19.6559C9.92925 19.5228 9.99902 19.3428 9.99902 19.1551V14.9079C9.99902 14.7196 10.0693 14.539 10.1943 14.4059C10.3193 14.2727 10.4888 14.1979 10.6656 14.1979H13.3321C13.5089 14.1979 13.6785 14.2727 13.8035 14.4059C13.9285 14.539 13.9987 14.7196 13.9987 14.9079V19.152C13.9984 19.2454 14.0155 19.338 14.0489 19.4244C14.0822 19.5108 14.1313 19.5893 14.1932 19.6555C14.2552 19.7216 14.3287 19.7741 14.4097 19.81C14.4908 19.8458 14.5776 19.8642 14.6653 19.8642L19.3325 19.878C19.5093 19.878 19.6788 19.8032 19.8038 19.67C19.9289 19.5369 19.9991 19.3563 19.9991 19.168V11.8904L12.3193 5.15687C12.229 5.07935 12.1165 5.03708 12.0005 5.03708C11.8846 5.03708 11.7721 5.07935 11.6818 5.15687V5.15687ZM23.8155 9.73685L20.3324 6.67894V0.532505C20.3324 0.391276 20.2797 0.255831 20.186 0.155967C20.0922 0.0561031 19.965 0 19.8324 0H17.4993C17.3667 0 17.2395 0.0561031 17.1457 0.155967C17.052 0.255831 16.9993 0.391276 16.9993 0.532505V3.7546L13.2692 0.485911C12.9112 0.172167 12.462 0.000627178 11.9984 0.000627178C11.5349 0.000627178 11.0857 0.172167 10.7277 0.485911L0.181444 9.73685C0.130818 9.78142 0.0889323 9.83618 0.0581813 9.89799C0.0274303 9.95981 0.00841634 10.0275 0.00222573 10.0971C-0.00396488 10.1668 0.00278923 10.237 0.0221021 10.3039C0.041415 10.3707 0.0729083 10.4329 0.114782 10.4868L1.1772 11.8624C1.21896 11.9165 1.27033 11.9613 1.32835 11.9942C1.38638 12.0271 1.44994 12.0475 1.51538 12.0542C1.58082 12.061 1.64686 12.0539 1.70973 12.0334C1.77259 12.0129 1.83104 11.9794 1.88173 11.9348L11.6818 3.33748C11.7721 3.25996 11.8846 3.21769 12.0005 3.21769C12.1165 3.21769 12.229 3.25996 12.3193 3.33748L22.1198 11.9348C22.1704 11.9794 22.2287 12.0129 22.2915 12.0335C22.3543 12.0541 22.4202 12.0612 22.4856 12.0547C22.551 12.0481 22.6145 12.0278 22.6726 11.9951C22.7306 11.9623 22.782 11.9177 22.8239 11.8638L23.8863 10.4881C23.9281 10.4339 23.9595 10.3714 23.9786 10.3043C23.9976 10.2371 24.0041 10.1666 23.9975 10.0968C23.9909 10.027 23.9714 9.95925 23.9402 9.89748C23.909 9.83571 23.8666 9.78112 23.8155 9.73685V9.73685Z" fill="#FF93D4"/>
</svg>
