<svg width="24" height="23" viewBox="0 0 24 23" fill="none" xmlns="http://www.w3.org/2000/svg">
<path d="M24 5.50673V19.6669C24 20.9698 22.9922 22.0269 21.75 22.0269H2.25C1.00781 22.0269 0 20.9698 0 19.6669V5.50673C0 4.2038 1.00781 3.14671 2.25 3.14671H6.375L6.95156 1.5291C7.27969 0.609674 8.11875 0 9.05625 0H14.9391C15.8766 0 16.7156 0.609674 17.0438 1.5291L17.625 3.14671H21.75C22.9922 3.14671 24 4.2038 24 5.50673ZM17.625 12.5868C17.625 9.33195 15.1031 6.68675 12 6.68675C8.89688 6.68675 6.375 9.33195 6.375 12.5868C6.375 15.8417 8.89688 18.4869 12 18.4869C15.1031 18.4869 17.625 15.8417 17.625 12.5868ZM16.125 12.5868C16.125 14.9714 14.2734 16.9135 12 16.9135C9.72656 16.9135 7.875 14.9714 7.875 12.5868C7.875 10.2022 9.72656 8.2601 12 8.2601C14.2734 8.2601 16.125 10.2022 16.125 12.5868Z" fill="white"/>
</svg>
