<svg width="26" height="25" viewBox="0 0 26 25" fill="none" xmlns="http://www.w3.org/2000/svg">
<path d="M13.0186 22.7607C13.2979 22.7607 13.5664 22.7285 13.8564 22.707L14.4688 23.8887C14.5869 24.125 14.8232 24.2539 15.124 24.2109C15.3926 24.1572 15.5752 23.9639 15.6182 23.6738L15.8008 22.374C16.3379 22.2344 16.8643 22.0303 17.3691 21.8047L18.3359 22.6748C18.54 22.8682 18.7979 22.9111 19.0664 22.7607C19.3027 22.6318 19.3994 22.374 19.3457 22.0947L19.0771 20.8057C19.5283 20.4941 19.9688 20.1396 20.3662 19.7422L21.5586 20.2471C21.8271 20.3545 22.085 20.3008 22.2891 20.0537C22.4717 19.8604 22.4932 19.5811 22.332 19.3447L21.6338 18.2275C21.9561 17.7764 22.2139 17.293 22.4609 16.7773L23.7822 16.8418C24.0615 16.8525 24.2871 16.7021 24.3838 16.4336C24.4697 16.165 24.3945 15.9072 24.1689 15.7354L23.1377 14.9189C23.2773 14.4033 23.3848 13.8447 23.4385 13.2646L24.6738 12.8779C24.9531 12.7812 25.1143 12.5771 25.1143 12.2871C25.1143 12.0078 24.9531 11.8037 24.6738 11.707L23.4385 11.3096C23.3848 10.7295 23.2773 10.1924 23.1377 9.66602L24.1689 8.83887C24.3838 8.67773 24.4697 8.43066 24.3838 8.16211C24.2871 7.89355 24.0615 7.74316 23.7822 7.75391L22.4609 7.80762C22.2139 7.29199 21.9561 6.80859 21.6338 6.35742L22.332 5.24023C22.4824 5.01465 22.4609 4.73535 22.2891 4.54199C22.085 4.29492 21.8271 4.23047 21.5586 4.34863L20.3662 4.83203C19.9688 4.45605 19.5283 4.09082 19.0771 3.7793L19.3457 2.50098C19.3994 2.21094 19.3027 1.95312 19.0664 1.82422C18.7979 1.68457 18.54 1.70605 18.3359 1.9209L17.3691 2.76953C16.8643 2.54395 16.3379 2.36133 15.8008 2.21094L15.6182 0.911133C15.5752 0.631836 15.3818 0.427734 15.1133 0.384766C14.8232 0.341797 14.5869 0.459961 14.4688 0.696289L13.8564 1.87793C13.5664 1.85645 13.2979 1.83496 13.0186 1.83496C12.7285 1.83496 12.4707 1.85645 12.1807 1.87793L11.5576 0.696289C11.4395 0.459961 11.2031 0.341797 10.9131 0.384766C10.6445 0.427734 10.4512 0.631836 10.4189 0.911133L10.2256 2.2002C9.68848 2.36133 9.17285 2.54395 8.65723 2.76953L7.69043 1.9209C7.48633 1.70605 7.22852 1.68457 6.95996 1.82422C6.72363 1.95312 6.62695 2.21094 6.68066 2.50098L6.94922 3.7793C6.50879 4.09082 6.05762 4.45605 5.66016 4.83203L4.46777 4.34863C4.19922 4.23047 3.95215 4.29492 3.74805 4.54199C3.56543 4.73535 3.54395 5.01465 3.69434 5.22949L4.39258 6.35742C4.08105 6.80859 3.8125 7.29199 3.56543 7.80762L2.25488 7.75391C1.97559 7.74316 1.73926 7.89355 1.64258 8.16211C1.55664 8.43066 1.63184 8.67773 1.85742 8.83887L2.88867 9.66602C2.74902 10.1924 2.6416 10.7295 2.60938 11.3096L1.35254 11.707C1.07324 11.793 0.922852 11.9971 0.922852 12.2871C0.922852 12.5771 1.07324 12.7812 1.35254 12.8779L2.60938 13.2754C2.6416 13.8447 2.74902 14.4033 2.88867 14.9189L1.85742 15.7354C1.64258 15.9072 1.56738 16.165 1.64258 16.4336C1.73926 16.7021 1.97559 16.8525 2.25488 16.8418L3.56543 16.7773C3.8125 17.293 4.08105 17.7764 4.39258 18.2275L3.69434 19.3447C3.54395 19.5811 3.56543 19.8604 3.74805 20.0537C3.95215 20.3008 4.19922 20.3545 4.46777 20.2471L5.66016 19.7422C6.05762 20.1396 6.50879 20.4941 6.94922 20.8057L6.68066 22.0947C6.62695 22.374 6.72363 22.6318 6.95996 22.7607C7.22852 22.9111 7.48633 22.8682 7.69043 22.6748L8.65723 21.8047C9.17285 22.0303 9.68848 22.2344 10.2256 22.374L10.4189 23.6738C10.4512 23.9639 10.6445 24.1572 10.9131 24.2109C11.2031 24.2539 11.4395 24.125 11.5576 23.8887L12.1807 22.707C12.46 22.7285 12.7285 22.7607 13.0186 22.7607ZM15.7148 11.6104C15.2207 10.2568 14.2217 9.51562 12.9971 9.51562C12.8037 9.51562 12.5996 9.53711 12.2451 9.6123L9.16211 4.34863C10.3223 3.7793 11.6221 3.46777 13.0186 3.46777C17.7021 3.46777 21.376 7.02344 21.7197 11.6104H15.7148ZM4.2959 12.2979C4.2959 9.31152 5.71387 6.67969 7.92676 5.08984L11.042 10.3857C10.4512 10.9873 10.1826 11.6426 10.1826 12.3408C10.1826 13.0176 10.4404 13.6406 11.0312 14.2637L7.8623 19.4629C5.68164 17.8623 4.2959 15.2627 4.2959 12.2979ZM11.708 12.3301C11.708 11.5996 12.3203 11.0303 13.0186 11.0303C13.7383 11.0303 14.3398 11.5996 14.3398 12.3301C14.3398 13.0498 13.7383 13.6406 13.0186 13.6406C12.3203 13.6406 11.708 13.0498 11.708 12.3301ZM13.0186 21.1279C11.5898 21.1279 10.2578 20.7949 9.08691 20.2148L12.2451 15.0479C12.5781 15.1338 12.8037 15.1553 12.9971 15.1553C14.2324 15.1553 15.2314 14.3926 15.7148 13.0068H21.709C21.3652 17.5723 17.7021 21.1279 13.0186 21.1279Z" fill="white"/>
</svg>
